<svg width="62" height="55" viewBox="0 0 62 55" fill="none" xmlns="http://www.w3.org/2000/svg">
<path d="M44.1289 54.2998C44.1289 54.3998 44.1289 54.3998 44.1289 54.2998C44.1289 54.3998 44.1289 54.3998 44.1289 54.2998C44.1289 54.4998 44.2289 54.6998 44.2289 54.7998C44.1289 54.6998 44.1289 54.4998 44.1289 54.2998C44.9289 53.0998 46.8289 52.2998 48.1289 51.5998C49.5289 50.7998 51.0289 49.9998 52.4289 49.2998C55.4289 47.7998 58.6289 46.3998 61.7289 45.1998C61.8289 45.1998 61.9289 39.9998 61.7289 39.8998C56.2289 36.3998 50.6289 32.8998 45.1289 29.3998C45.3289 29.4998 45.1289 31.7998 45.1289 32.0998C45.1289 32.3998 44.9289 34.5998 45.1289 34.7998C47.3289 36.1998 49.5289 37.4998 51.6289 38.8998C48.7289 38.6998 45.9289 38.2998 43.1289 37.6998C33.5289 35.6998 24.3289 31.2998 16.6289 25.1998C9.02889 19.0998 0.728893 10.1998 0.0288935 -0.000203768C0.128892 1.1998 -0.0711053 3.4998 0.028893 5.09979C0.428894 11.0998 3.42889 16.3998 7.12889 20.9998C18.0289 34.5998 34.7289 43.0998 52.1289 44.1998C50.9289 44.7998 49.6289 45.4998 48.4289 46.1998C47.0289 46.9998 44.6289 47.7998 44.2289 49.3998C44.2289 49.2998 44.2289 49.1998 44.1289 49.1998C44.1289 49.3998 44.1289 49.4998 44.1289 49.6998C44.1289 49.6998 44.1289 49.6998 44.1289 49.7998C43.9289 50.9998 43.8289 52.8998 44.1289 54.2998ZM44.1289 53.3998C44.1289 53.5998 44.1289 53.8998 44.1289 54.0998C44.0289 53.8998 44.0289 53.5998 44.1289 53.3998Z" fill="#FF3434"/>
</svg>
