<svg width="24" height="25" viewBox="0 0 24 25" fill="none" xmlns="http://www.w3.org/2000/svg">
<path d="M0.49716 19.9329L11.6953 24.5717H11.7434H11.7955C11.926 24.6127 12.066 24.6127 12.1965 24.5717H12.2486H12.2967L23.5028 19.9329C23.6499 19.8725 23.7757 19.7697 23.8642 19.6376C23.9527 19.5056 24 19.3502 24 19.1912V5.32681C23.9952 5.25786 23.9845 5.18944 23.9679 5.12233C23.9679 5.09828 23.9479 5.07823 23.9399 5.05818C23.9247 5.01202 23.9045 4.96765 23.8797 4.92587L23.8316 4.86172C23.804 4.82429 23.7732 4.7894 23.7394 4.75748L23.6752 4.69734L23.6271 4.66126C23.5945 4.63992 23.5595 4.62243 23.5229 4.60913C23.5111 4.5988 23.4975 4.59065 23.4828 4.58508L19.5256 2.98134L15.9693 1.54198L12.3007 0.0585167C12.1078 -0.0195056 11.8922 -0.0195056 11.6993 0.0585167L0.501169 4.58508C0.485669 4.59154 0.470888 4.5996 0.457067 4.60913C0.422084 4.6233 0.388522 4.64076 0.356833 4.66126L0.324758 4.69734L0.260608 4.74946C0.227819 4.78093 0.197021 4.8144 0.168393 4.8497L0.120281 4.91786C0.0954642 4.95963 0.0752973 5.004 0.0601404 5.05016C0.0601404 5.07021 0.0400936 5.09026 0.0320749 5.11431C0.0155279 5.18142 0.0047965 5.24984 0 5.31879V19.2032C0.00235949 19.3601 0.0507242 19.5129 0.139099 19.6426C0.227473 19.7723 0.351971 19.8733 0.49716 19.9329ZM22.3963 18.6539L12.8019 22.6312V10.4868L22.3963 6.52561V18.6539ZM21.0772 5.33483L19.2569 6.08859L12 9.08358L10.1196 8.30576L11.567 7.71639L19.2409 4.5931L21.0772 5.33483ZM17.1079 3.73109L7.70598 7.56002L7.44136 7.66426C7.29291 7.72431 7.16584 7.82744 7.07652 7.96035C6.9872 8.09326 6.93972 8.24987 6.94019 8.41V12.9566L5.68527 12.4394V7.22724L8.09088 6.25297L15.6686 3.14973L17.1079 3.73109ZM12 1.66627L13.5316 2.29173L5.0558 5.73977L4.57868 5.93222C4.54473 5.9442 4.51241 5.96036 4.48246 5.98033L2.92282 5.33483L12 1.66627ZM1.60374 6.52561L2.68627 6.97064L4.07751 7.54799V12.9767C4.07751 13.1357 4.12477 13.2911 4.2133 13.4231C4.30182 13.5552 4.42761 13.658 4.57467 13.7184L7.43334 14.8971C7.48912 14.9187 7.54686 14.9348 7.60575 14.9453H7.66188H7.73806H7.77414C7.82154 14.9414 7.8685 14.9334 7.91447 14.9212H7.98664C8.05581 14.8973 8.12179 14.865 8.18309 14.825C8.29266 14.7519 8.38253 14.6529 8.44476 14.5368C8.507 14.4208 8.53968 14.2911 8.53993 14.1594V9.38829L11.1981 10.4868V22.6312L1.60374 18.6659V6.52561Z" fill="white"/>
</svg>
