<svg width="37" height="28" viewBox="0 0 37 28" fill="none" xmlns="http://www.w3.org/2000/svg">
<path d="M0 0V1.23333V27.1333H37V0H0ZM2.46667 2.46667H34.5333V24.6667H2.46667V2.46667Z" fill="white"/>
<path d="M12.3333 3.18933L11.4613 4.06134L7.40001 8.12266L5.80535 6.528L4.93334 5.656L3.18933 7.40001L4.06134 8.27201L7.40001 11.6107L13.2053 5.80535L14.0774 4.93334L12.3333 3.18933Z" fill="white"/>
<path d="M23.4333 20.9667V23.4333H24.6667H32.0667H33.3V20.9667H32.0667H24.6667H23.4333Z" fill="white"/>
<path d="M3.69998 20.9667V23.4333H4.93332H7.39998H8.63332V20.9667H7.39998H4.93332H3.69998Z" fill="white"/>
<path d="M16.0333 4.93335V7.40002H17.2667H30.8333H32.0667V4.93335H30.8333H17.2667H16.0333Z" fill="white"/>
</svg>
