<svg width="44" height="35" viewBox="0 0 44 35" fill="none" xmlns="http://www.w3.org/2000/svg">
<path d="M34.8571 12.3018L34.8121 12.2418H34.7371H34.2989H30.9438V10.6392V9.76289V9.61289H30.7938H29.9175H22.9072H22.7572V9.76289V11.5155V11.6655H22.9072H28.8912V20.2784V21.1546V21.3046H29.0412H29.9175H39.0548L41.5974 24.5738V29.7675H39.5567H39.4067V29.9175V31.6701V31.8201H39.5567H42.6237H43.5H43.65V31.6701V30.7938V24.2217V23.921V23.8695L43.6184 23.8289L43.4338 23.5916L40.3723 19.6554L40.3708 19.6533L35.12 12.6523L34.8571 12.3018ZM8.8866 22.7572H8.7366V22.9072V30.7938V31.6701V31.8201H8.8866H9.76289H14.1443H14.2943V31.6701V29.9175V29.7675H14.1443H10.7892V22.9072V22.7572H10.6392H8.8866ZM30.0675 29.9175V29.7675H29.9175H23.7835H23.6335V29.9175V31.6701V31.8201H23.7835H29.9175H30.0675V31.6701V29.9175ZM8.8866 6.10773H8.7366V6.25773V11.5155V12.3918V13.268V13.418H8.8866H15.8969H16.0469V13.268V11.5155V11.3655H15.8969H10.7892V6.25773V6.10773H10.6392H8.8866ZM19.2521 11.0773C19.2521 15.5921 15.5921 19.2521 11.0773 19.2521C6.56253 19.2521 2.90258 15.5921 2.90258 11.0773C2.90258 6.56253 6.56253 2.90258 11.0773 2.90258C15.5921 2.90258 19.2521 6.56253 19.2521 11.0773ZM11.0773 21.3046C16.7257 21.3046 21.3046 16.7257 21.3046 11.0773C21.3046 5.42893 16.7257 0.85 11.0773 0.85C5.42893 0.85 0.85 5.42893 0.85 11.0773C0.85 16.7257 5.42893 21.3046 11.0773 21.3046ZM37.5041 19.2521H30.9438V14.2943H33.7858L37.5041 19.2521ZM36.7778 30.7938C36.7778 31.6789 36.0603 32.3964 35.1753 32.3964C34.2902 32.3964 33.5727 31.6789 33.5727 30.7938C33.5727 29.9087 34.2902 29.1912 35.1753 29.1912C36.0603 29.1912 36.7778 29.9087 36.7778 30.7938ZM35.1753 34.449C37.1939 34.449 38.8304 32.8125 38.8304 30.7938C38.8304 28.7751 37.1939 27.1387 35.1753 27.1387C33.1566 27.1387 31.5201 28.7751 31.5201 30.7938C31.5201 32.8125 33.1566 34.449 35.1753 34.449ZM20.1284 30.7938C20.1284 31.6789 19.4109 32.3964 18.5258 32.3964C17.6407 32.3964 16.9232 31.6789 16.9232 30.7938C16.9232 29.9087 17.6407 29.1912 18.5258 29.1912C19.4109 29.1912 20.1284 29.9087 20.1284 30.7938ZM18.5258 34.449C20.5445 34.449 22.1809 32.8125 22.1809 30.7938C22.1809 28.7751 20.5445 27.1387 18.5258 27.1387C16.5071 27.1387 14.8706 28.7751 14.8706 30.7938C14.8706 32.8125 16.5071 34.449 18.5258 34.449Z" fill="white" stroke="white" stroke-width="0.3"/>
</svg>
