<svg width="153" height="102" viewBox="0 0 153 102" fill="none" xmlns="http://www.w3.org/2000/svg">
<g filter="url(#filter0_d)">
<path d="M76.7979 35.6919C76.7979 47.7122 53.943 58.282 46.7358 51.9259C42.4879 48.1796 45.97 45.4082 48.0466 38.1055C50.4227 29.7498 42.1181 29.8737 44.4016 22.1173C48.0465 9.73697 76.7979 22.0128 76.7979 35.6919Z" fill="#FF3434"/>
</g>
<path d="M90.5553 24.6495C91.6973 24.6495 92.6922 24.8379 93.5399 25.2146C94.3876 25.5914 95.041 26.133 95.5002 26.8394C95.9594 27.5458 96.189 28.3699 96.189 29.3118C96.189 30.2537 95.9594 31.0779 95.5002 31.7843C95.041 32.4907 94.3876 33.0323 93.5399 33.409C92.6922 33.7858 91.6973 33.9742 90.5553 33.9742H88.7716V37.0118H84.6037V24.6495H90.5553ZM90.2904 30.76C90.8555 30.76 91.2794 30.6364 91.5619 30.3891C91.8445 30.1301 91.9858 29.771 91.9858 29.3118C91.9858 28.8527 91.8445 28.4994 91.5619 28.2522C91.2794 27.9932 90.8555 27.8637 90.2904 27.8637H88.7716V30.76H90.2904Z" fill="white"/>
<path d="M101.931 28.3935C102.638 27.5811 103.68 27.1749 105.057 27.1749V30.707C104.739 30.6599 104.445 30.6364 104.174 30.6364C102.809 30.6364 102.126 31.331 102.126 32.7203V37.0118H98.1345V27.3515H101.931V28.3935Z" fill="white"/>
<path d="M111.736 37.1884C110.665 37.1884 109.699 36.9764 108.84 36.5526C107.992 36.117 107.327 35.5224 106.844 34.7689C106.361 34.0036 106.12 33.1382 106.12 32.1728C106.12 31.2074 106.361 30.3479 106.844 29.5944C107.327 28.8291 107.992 28.2345 108.84 27.8107C109.699 27.3868 110.665 27.1749 111.736 27.1749C112.819 27.1749 113.785 27.3868 114.632 27.8107C115.492 28.2345 116.157 28.8291 116.628 29.5944C117.111 30.3479 117.352 31.2074 117.352 32.1728C117.352 33.1382 117.111 34.0036 116.628 34.7689C116.157 35.5224 115.492 36.117 114.632 36.5526C113.785 36.9764 112.819 37.1884 111.736 37.1884ZM111.736 34.0801C112.195 34.0801 112.572 33.9153 112.866 33.5856C113.161 33.2442 113.308 32.7733 113.308 32.1728C113.308 31.5724 113.161 31.1073 112.866 30.7776C112.572 30.448 112.195 30.2831 111.736 30.2831C111.277 30.2831 110.9 30.448 110.606 30.7776C110.311 31.1073 110.164 31.5724 110.164 32.1728C110.164 32.7733 110.311 33.2442 110.606 33.5856C110.9 33.9153 111.277 34.0801 111.736 34.0801Z" fill="white"/>
<path d="M130.292 37.0118L130.257 31.3781L127.573 35.8991H125.736L123.052 31.5724V37.0118H119.255V24.6495H122.681L126.707 31.2368L130.628 24.6495H134.054L134.089 37.0118H130.292Z" fill="white"/>
<path d="M141.244 37.2943C140.219 37.2943 139.219 37.1825 138.241 36.9588C137.276 36.7233 136.481 36.4113 135.857 36.0228L137.199 32.9852C137.788 33.3266 138.447 33.6033 139.177 33.8152C139.907 34.0154 140.608 34.1154 141.279 34.1154C141.856 34.1154 142.268 34.0625 142.515 33.9565C142.762 33.8388 142.886 33.6681 142.886 33.4444C142.886 33.1853 142.721 32.9911 142.392 32.8616C142.074 32.7321 141.544 32.5908 140.802 32.4377C139.848 32.2376 139.054 32.0256 138.418 31.8019C137.782 31.5665 137.229 31.1897 136.758 30.6717C136.287 30.1419 136.052 29.4296 136.052 28.5348C136.052 27.7577 136.269 27.0513 136.705 26.4155C137.141 25.7797 137.788 25.2794 138.648 24.9144C139.519 24.5494 140.573 24.3669 141.809 24.3669C142.656 24.3669 143.487 24.4611 144.299 24.6495C145.123 24.8261 145.847 25.091 146.471 25.4442L145.217 28.4641C144.005 27.8519 142.857 27.5458 141.773 27.5458C140.702 27.5458 140.166 27.8048 140.166 28.3228C140.166 28.5701 140.325 28.7585 140.643 28.888C140.961 29.0057 141.485 29.1352 142.215 29.2765C143.157 29.4531 143.952 29.6591 144.599 29.8946C145.247 30.1183 145.806 30.4892 146.277 31.0072C146.76 31.5253 147.001 32.2317 147.001 33.1265C147.001 33.9035 146.783 34.6099 146.348 35.2457C145.912 35.8697 145.258 36.3701 144.387 36.7468C143.528 37.1118 142.48 37.2943 141.244 37.2943Z" fill="white"/>
<path d="M148.771 24.6495H152.939V37.0118H148.771V24.6495Z" fill="white"/>
<path d="M84.9822 42.7564C85.1083 42.5243 85.295 42.3477 85.5423 42.2266C85.7895 42.1055 86.0897 42.045 86.4429 42.045V42.7489C86.4026 42.7438 86.3471 42.7413 86.2764 42.7413C85.8829 42.7413 85.5725 42.8599 85.3455 43.097C85.1235 43.3291 85.0125 43.6622 85.0125 44.0961V46.0942H84.2859V42.0828H84.9822V42.7564Z" fill="white"/>
<path d="M98.8741 44.1112C98.8741 44.1667 98.8691 44.2399 98.859 44.3307H95.6044C95.6498 44.6839 95.8037 44.969 96.0661 45.186C96.3336 45.3979 96.6641 45.5039 97.0576 45.5039C97.537 45.5039 97.923 45.3424 98.2157 45.0195L98.6168 45.4887C98.4351 45.7007 98.2081 45.8621 97.9356 45.9731C97.6682 46.0842 97.368 46.1397 97.0349 46.1397C96.6111 46.1397 96.2352 46.0539 95.9072 45.8823C95.5792 45.7057 95.3244 45.461 95.1427 45.1481C94.9661 44.8353 94.8778 44.4821 94.8778 44.0885C94.8778 43.7 94.9636 43.3493 95.1352 43.0365C95.3118 42.7236 95.5515 42.4814 95.8542 42.3099C96.162 42.1333 96.5076 42.045 96.8911 42.045C97.2746 42.045 97.6152 42.1333 97.9129 42.3099C98.2157 42.4814 98.4503 42.7236 98.6168 43.0365C98.7884 43.3493 98.8741 43.7076 98.8741 44.1112ZM96.8911 42.658C96.543 42.658 96.2503 42.764 96.0131 42.9759C95.781 43.1878 95.6448 43.4654 95.6044 43.8085H98.1778C98.1374 43.4704 97.9987 43.1954 97.7615 42.9835C97.5294 42.7665 97.2393 42.658 96.8911 42.658Z" fill="white"/>
<path d="M112.848 42.045C113.353 42.045 113.752 42.1913 114.044 42.484C114.342 42.7766 114.491 43.2106 114.491 43.7858V46.0942H113.764V43.869C113.764 43.4805 113.673 43.1878 113.492 42.9911C113.315 42.7943 113.06 42.6959 112.727 42.6959C112.359 42.6959 112.066 42.8119 111.849 43.044C111.632 43.2711 111.524 43.5991 111.524 44.028V46.0942H110.797V43.869C110.797 43.4805 110.706 43.1878 110.525 42.9911C110.348 42.7943 110.093 42.6959 109.76 42.6959C109.392 42.6959 109.099 42.8119 108.882 43.044C108.665 43.2711 108.557 43.5991 108.557 44.028V46.0942H107.83V42.0828H108.527V42.6807C108.673 42.4739 108.865 42.3174 109.102 42.2115C109.339 42.1005 109.609 42.045 109.912 42.045C110.225 42.045 110.502 42.108 110.744 42.2342C110.986 42.3603 111.173 42.5445 111.304 42.7867C111.456 42.5546 111.665 42.3729 111.933 42.2418C112.205 42.1106 112.51 42.045 112.848 42.045Z" fill="white"/>
<path d="M125.515 46.1397C125.117 46.1397 124.758 46.0514 124.44 45.8747C124.123 45.6981 123.873 45.4559 123.691 45.1481C123.514 44.8353 123.426 44.4821 123.426 44.0885C123.426 43.695 123.514 43.3443 123.691 43.0365C123.873 42.7236 124.123 42.4814 124.44 42.3099C124.758 42.1333 125.117 42.045 125.515 42.045C125.914 42.045 126.27 42.1333 126.582 42.3099C126.9 42.4814 127.147 42.7236 127.324 43.0365C127.506 43.3443 127.597 43.695 127.597 44.0885C127.597 44.4821 127.506 44.8353 127.324 45.1481C127.147 45.4559 126.9 45.6981 126.582 45.8747C126.27 46.0514 125.914 46.1397 125.515 46.1397ZM125.515 45.5039C125.772 45.5039 126.002 45.4459 126.204 45.3298C126.411 45.2087 126.572 45.0422 126.688 44.8303C126.804 44.6133 126.862 44.366 126.862 44.0885C126.862 43.811 126.804 43.5663 126.688 43.3544C126.572 43.1374 126.411 42.9709 126.204 42.8548C126.002 42.7388 125.772 42.6807 125.515 42.6807C125.258 42.6807 125.026 42.7388 124.819 42.8548C124.617 42.9709 124.456 43.1374 124.334 43.3544C124.218 43.5663 124.16 43.811 124.16 44.0885C124.16 44.366 124.218 44.6133 124.334 44.8303C124.456 45.0422 124.617 45.2087 124.819 45.3298C125.026 45.4459 125.258 45.5039 125.515 45.5039Z" fill="white"/>
<path d="M138.691 42.045C139.2 42.045 139.604 42.1938 139.902 42.4915C140.204 42.7842 140.356 43.2156 140.356 43.7858V46.0942H139.629V43.869C139.629 43.4805 139.536 43.1878 139.349 42.9911C139.162 42.7943 138.895 42.6959 138.547 42.6959C138.153 42.6959 137.843 42.8119 137.616 43.044C137.389 43.2711 137.275 43.5991 137.275 44.028V46.0942H136.549V42.0828H137.245V42.6883C137.391 42.4814 137.588 42.3225 137.835 42.2115C138.088 42.1005 138.373 42.045 138.691 42.045Z" fill="white"/>
<path d="M151.903 45.8596C151.797 45.9504 151.666 46.0211 151.509 46.0715C151.353 46.1169 151.192 46.1397 151.025 46.1397C150.621 46.1397 150.309 46.0312 150.087 45.8142C149.865 45.5972 149.754 45.2869 149.754 44.8832V42.6807H149.072V42.0828H149.754V41.2048H150.48V42.0828H151.631V42.6807H150.48V44.853C150.48 45.0699 150.533 45.2365 150.639 45.3525C150.75 45.4686 150.906 45.5266 151.108 45.5266C151.33 45.5266 151.52 45.4635 151.676 45.3374L151.903 45.8596Z" fill="white"/>
<path d="M53.3561 44.1823V45.9655H58.7053V28.1348H51.5732C50.5927 28.1348 49.7901 28.9366 49.7901 29.9179V40.6163C49.7901 41.5965 50.5927 42.3994 51.5732 42.3994H56.9224V44.1823H53.3561Z" fill="white"/>
<path d="M69.6388 24.5687H62.5067C61.5262 24.5687 60.7236 25.3714 60.7236 26.3519V44.1823C60.7236 45.1628 61.5262 45.9654 62.5067 45.9654H69.6388C70.6193 45.9654 71.4219 45.1628 71.4219 44.1823V26.3519C71.4219 25.3714 70.6193 24.5687 69.6388 24.5687ZM66.0728 44.1823C65.5809 44.1823 65.1813 43.7827 65.1813 43.2909C65.1813 42.799 65.5809 42.3994 66.0728 42.3994C66.5646 42.3994 66.9642 42.799 66.9642 43.2909C66.9642 43.7827 66.5646 44.1823 66.0728 44.1823ZM69.6388 33.4839H62.5067V31.7011H69.6388V33.4839ZM69.6388 29.9179H62.5067V28.1348H69.6388V29.9179Z" fill="white"/>
<defs>
<filter id="filter0_d" x="0" y="-23" width="120.798" height="124.835" filterUnits="userSpaceOnUse" color-interpolation-filters="sRGB">
<feFlood flood-opacity="0" result="BackgroundImageFix"/>
<feColorMatrix in="SourceAlpha" type="matrix" values="0 0 0 0 0 0 0 0 0 0 0 0 0 0 0 0 0 0 127 0"/>
<feOffset dy="4"/>
<feGaussianBlur stdDeviation="22"/>
<feColorMatrix type="matrix" values="0 0 0 0 1 0 0 0 0 0.203922 0 0 0 0 0.203922 0 0 0 0.82 0"/>
<feBlend mode="normal" in2="BackgroundImageFix" result="effect1_dropShadow"/>
<feBlend mode="normal" in="SourceGraphic" in2="effect1_dropShadow" result="shape"/>
</filter>
</defs>
</svg>
