<svg width="22" height="20" viewBox="0 0 22 20" fill="none" xmlns="http://www.w3.org/2000/svg">
<path d="M0.390777 15.3175C2.34466 16.5321 4.30382 17.752 6.25771 18.9665C6.53231 19.1408 6.81219 19.3098 7.08679 19.4841C7.32442 19.6319 7.64655 19.6266 7.88418 19.4841C9.9384 18.2642 11.9926 17.0496 14.0468 15.8298C14.332 15.6608 14.6224 15.4865 14.9076 15.3175C14.6436 15.3175 14.3742 15.3175 14.1102 15.3175C16.0641 16.5321 18.0233 17.752 19.9771 18.9665C20.2517 19.1408 20.5316 19.3098 20.8062 19.4841C21.3185 19.8062 21.9997 19.389 21.9997 18.7976C21.9997 17.752 21.9997 16.7064 21.9997 15.6608C21.9997 13.6066 21.9997 11.5523 21.9997 9.49813C21.9997 8.05648 21.9997 6.61483 21.9997 5.17318C21.9997 5.0306 22.0049 4.8933 21.9733 4.75072C21.8993 4.42331 21.5931 4.26489 21.3343 4.10646C20.6636 3.68928 19.9877 3.2721 19.317 2.84964C17.8754 1.95191 16.4496 1.03834 14.9974 0.161732C14.971 0.14589 14.9393 0.124767 14.9129 0.108925C14.6752 -0.0389366 14.3531 -0.0336559 14.1155 0.108925C12.0613 1.32878 10.0071 2.54864 7.95283 3.7685C7.66767 3.93748 7.37723 4.11174 7.09207 4.28073C7.35611 4.28073 7.62542 4.28073 7.88946 4.28073C5.93558 3.06615 3.97642 1.8463 2.02253 0.63172C1.74793 0.457455 1.46805 0.288471 1.19345 0.114205C0.681219 -0.207921 0 0.209259 0 0.800705C0 2.36381 0 3.92692 0 5.49002C0 7.97198 0 10.4487 0 12.9306C0 13.5009 0 14.0713 0 14.6363C0 15.0482 0.364373 15.4495 0.792115 15.4284C1.21986 15.4073 1.58423 15.0799 1.58423 14.6363C1.58423 13.0732 1.58423 11.5101 1.58423 9.94699C1.58423 7.46503 1.58423 4.98835 1.58423 2.50639C1.58423 1.93607 1.58423 1.36575 1.58423 0.800705C1.18817 1.02778 0.792115 1.25485 0.390777 1.4872C2.34466 2.70178 4.30382 3.92164 6.25771 5.13621C6.53231 5.31048 6.81219 5.47946 7.08679 5.65373C7.32442 5.80159 7.64655 5.79631 7.88418 5.65373C9.9384 4.43387 11.9926 3.2193 14.0468 1.99944C14.332 1.83045 14.6224 1.65619 14.9076 1.4872C14.6436 1.4872 14.3742 1.4872 14.1102 1.4872C16.0641 2.70178 18.0233 3.92164 19.9771 5.13621C20.2517 5.31048 20.5316 5.47946 20.8062 5.65373C20.6742 5.42666 20.5422 5.19958 20.4154 4.96723C20.4154 6.53033 20.4154 8.09344 20.4154 9.65655C20.4154 12.1385 20.4154 14.6152 20.4154 17.0971C20.4154 17.6675 20.4154 18.2378 20.4154 18.8028C20.8115 18.5758 21.2076 18.3487 21.6089 18.1163C19.655 16.9018 17.6958 15.6819 15.742 14.4673C15.4674 14.2931 15.1875 14.1241 14.9129 13.9498C14.6752 13.8019 14.3531 13.8072 14.1155 13.9498C12.0613 15.1697 10.0071 16.3842 7.95283 17.6041C7.66767 17.7731 7.37723 17.9473 7.09207 18.1163C7.35611 18.1163 7.62542 18.1163 7.88946 18.1163C5.93558 16.9018 3.97642 15.6819 2.02253 14.4673C1.74793 14.2931 1.46805 14.1241 1.19345 13.9498C0.82908 13.7227 0.322127 13.8706 0.110896 14.235C-0.116177 14.6099 0.0264039 15.0905 0.390777 15.3175Z" fill="white"/>
<path d="M13.767 0.969702C13.767 2.5064 13.767 4.04311 13.767 5.57981C13.767 8.0248 13.767 10.4751 13.767 12.9201C13.767 13.4798 13.767 14.0343 13.767 14.5941C13.767 15.006 14.1313 15.4073 14.5591 15.3862C14.9868 15.3651 15.3512 15.0377 15.3512 14.5941C15.3512 13.0574 15.3512 11.5207 15.3512 9.98397C15.3512 7.53898 15.3512 5.0887 15.3512 2.6437C15.3512 2.08394 15.3512 1.52946 15.3512 0.969702C15.3512 0.557802 14.9868 0.156464 14.5591 0.177587C14.1261 0.19871 13.767 0.526118 13.767 0.969702Z" fill="white"/>
<path d="M6.65906 4.91968C6.65906 6.48279 6.65906 8.0459 6.65906 9.609C6.65906 12.091 6.65906 14.5676 6.65906 17.0496C6.65906 17.6199 6.65906 18.1902 6.65906 18.7553C6.65906 19.1672 7.02343 19.5685 7.45117 19.5474C7.87891 19.5263 8.24329 19.1989 8.24329 18.7553C8.24329 17.1922 8.24329 15.6291 8.24329 14.066C8.24329 11.584 8.24329 9.10733 8.24329 6.62537C8.24329 6.05505 8.24329 5.48473 8.24329 4.91968C8.24329 4.50778 7.87891 4.10645 7.45117 4.12757C7.01815 4.14869 6.65906 4.4761 6.65906 4.91968Z" fill="white"/>
</svg>
