<svg width="20" height="20" viewBox="0 0 20 20" fill="none" xmlns="http://www.w3.org/2000/svg">
<path fill-rule="evenodd" clip-rule="evenodd" d="M12.6225 4.25156C12.9825 3.81098 13.4739 3.22118 13.9961 2.62933C14.515 2.04132 15.079 1.43436 15.5817 0.968216C15.8313 0.736793 16.0862 0.520822 16.3271 0.357037C16.4476 0.275058 16.5826 0.193757 16.7257 0.130298C16.8592 0.0710749 17.0599 0 17.2959 0C18.5471 0 19.2948 0.964229 19.6486 1.97506C20.0092 3.00554 20.0871 4.35323 19.906 5.80235C19.5417 8.71637 18.0949 12.3224 15.2086 15.2087C12.3224 18.0949 8.71632 19.5417 5.80233 19.9061C4.3532 20.0872 3.00549 20.0093 1.97501 19.6486C0.964203 19.2948 0 18.5471 0 17.2959C0 17.0635 0.0686398 16.8651 0.126535 16.7318C0.188526 16.5893 0.267998 16.4546 0.348377 16.3341C0.508957 16.0932 0.720787 15.8381 0.947908 15.5884C1.40516 15.0854 2.0005 14.5211 2.57709 14.0021C3.15751 13.4798 3.73583 12.9882 4.16786 12.6282L5.52942 11.5245L7.5961 13.5912C7.74375 13.5521 7.93855 13.4889 8.17596 13.3871C8.85451 13.0965 9.89773 12.4838 11.1901 11.1906C12.4829 9.897 13.097 8.85327 13.3891 8.1742C13.4878 7.94461 13.5505 7.75487 13.5903 7.60903L11.5165 5.64335L11.5564 5.59242C11.9089 5.14307 12.2612 4.69383 12.6225 4.25156ZM18.0994 5.57654C17.7809 8.12439 16.4969 11.3457 13.9212 13.9213C11.3456 16.4969 8.12435 17.781 5.57648 18.0995C4.29467 18.2597 3.25282 18.1669 2.57646 17.9302C2.02863 17.7384 1.87488 17.5263 1.83428 17.389C1.84238 17.3758 1.85194 17.3609 1.86323 17.344C1.95162 17.2114 2.09536 17.0327 2.29499 16.8131C2.69115 16.3773 3.2337 15.8605 3.795 15.3554C4.38279 14.8264 4.97321 14.3261 5.40088 13.9707L6.90517 15.4751C7.20484 15.4753 7.49241 15.4741 7.7879 15.4151C8.0629 15.3602 8.43631 15.2563 8.89293 15.0607C9.80761 14.6689 11.0402 13.9161 12.4779 12.4775C13.9152 11.0393 14.6686 9.80724 15.0616 8.89349C15.2577 8.4374 15.3624 8.06449 15.4179 7.78994C15.4788 7.48898 15.4796 7.19746 15.4805 6.8921L13.979 5.46893C14.3343 5.03288 14.8335 4.43208 15.3613 3.83389C15.8666 3.26125 16.3836 2.70756 16.8196 2.30322C16.9993 2.13664 17.1845 1.96694 17.3922 1.8353C17.5297 1.87738 17.7399 2.03296 17.9302 2.5765C18.1669 3.25285 18.2596 4.29473 18.0994 5.57654ZM1.79623 17.4578C1.79386 17.4631 1.7945 17.4626 1.79668 17.4567L1.79623 17.4578Z" fill="white"/>
</svg>
