<svg width="23" height="23" viewBox="0 0 23 23" fill="none" xmlns="http://www.w3.org/2000/svg">
<path fill-rule="evenodd" clip-rule="evenodd" d="M11.5 20.7C16.5727 20.7 20.7 16.5727 20.7 11.5C20.7 6.42735 16.5727 2.3 11.5 2.3C6.42735 2.3 2.3 6.42735 2.3 11.5C2.3 16.5727 6.42735 20.7 11.5 20.7ZM11.5 0C17.8503 0 23 5.14855 23 11.5C23 17.8514 17.8503 23 11.5 23C5.1497 23 0 17.8514 0 11.5C0 5.14855 5.1497 0 11.5 0ZM8.28805 16.3381L6.66195 14.7119L10.35 11.0239V5.75H12.65V11.9761L8.28805 16.3381Z" fill="white"/>
</svg>
